<svg width="92" height="91" viewBox="0 0 92 91" fill="none" xmlns="http://www.w3.org/2000/svg">
<path d="M87.4 18.1998H67.4667V12.1331C67.4614 7.94675 64.0324 4.55499 59.8 4.5498H32.2C27.9676 4.55499 24.5386 7.94675 24.5333 12.1331V18.1998H4.6C2.05967 18.1998 0 20.2371 0 22.7498V56.5105C0.00973306 58.4344 1.23535 60.1459 3.06667 60.7924V81.8998C3.06667 84.4125 5.12633 86.4498 7.66667 86.4498H84.3333C86.8737 86.4498 88.9333 84.4125 88.9333 81.8998V60.7939C90.7646 60.1466 91.991 58.4344 92 56.5105V22.7498C92 20.2371 89.9403 18.1998 87.4 18.1998ZM27.6 12.1331C27.6 9.62042 29.6597 7.58314 32.2 7.58314H59.8C62.3403 7.58314 64.4 9.62042 64.4 12.1331V18.1998H61.3333V12.1331C61.3333 11.2956 60.6468 10.6165 59.8 10.6165H32.2C31.3532 10.6165 30.6667 11.2956 30.6667 12.1331V18.1998H27.6V12.1331ZM58.2667 18.1998H33.7333V13.6498H58.2667V18.1998ZM85.8667 81.8998C85.8667 82.7374 85.1801 83.4165 84.3333 83.4165H7.66667C6.81989 83.4165 6.13333 82.7374 6.13333 81.8998V61.3137L39.8667 65.9156V69.7665C39.8667 72.2792 41.9263 74.3165 44.4667 74.3165H47.5333C50.0737 74.3165 52.1333 72.2792 52.1333 69.7665V65.9156L85.8667 61.3137V81.8998ZM49.0667 69.7665C49.0667 70.6041 48.3801 71.2831 47.5333 71.2831H44.4667C43.6199 71.2831 42.9333 70.6041 42.9333 69.7665V60.6665C42.9333 59.8289 43.6199 59.1498 44.4667 59.1498H47.5333C48.3801 59.1498 49.0667 59.8289 49.0667 60.6665V69.7665ZM88.9333 56.5105C88.9341 57.2666 88.3718 57.9079 87.6149 58.0138L87.1896 58.0716L52.1333 62.8534V60.6665C52.1333 58.1538 50.0737 56.1165 47.5333 56.1165H44.4667C41.9263 56.1165 39.8667 58.1538 39.8667 60.6665V62.8534L4.38662 58.0138C3.62969 57.9086 3.06592 57.2673 3.06667 56.5105V22.7498C3.06667 21.9122 3.75322 21.2331 4.6 21.2331H87.4C88.2468 21.2331 88.9333 21.9122 88.9333 22.7498V56.5105Z" fill="#B4996B"/>
</svg>
