<svg width="92" height="91" viewBox="0 0 92 91" fill="none" xmlns="http://www.w3.org/2000/svg">
<path d="M54.3041 44.4232H51.8077V38.8398C51.8077 32.9808 46.9886 28.2144 41.0654 28.2144C35.1422 28.2144 30.3232 32.981 30.3232 38.8398V44.4232H27.8272C26.9482 44.4232 26.2355 45.1281 26.2355 45.9976V69.2094C26.2355 70.0789 26.9482 70.7838 27.8272 70.7838H54.3041C55.1831 70.7838 55.8958 70.0789 55.8958 69.2094V45.9976C55.8958 45.1281 55.1831 44.4232 54.3041 44.4232ZM33.5066 38.84C33.5066 34.7174 36.8975 31.3633 41.0654 31.3633C45.2333 31.3633 48.6243 34.7174 48.6243 38.84V44.4234H33.5066V38.84ZM52.7124 67.6352H29.4189V47.5722H52.7124V67.6352Z" fill="#B99879"/>
<path d="M39.474 59.6471V63.4718C39.474 64.3413 40.1866 65.0462 41.0657 65.0462C41.9447 65.0462 42.6574 64.3413 42.6574 63.4718V59.6471C44.5808 58.9917 45.9672 57.1849 45.9672 55.0626C45.9672 52.3893 43.7684 50.2144 41.0657 50.2144C38.363 50.2144 36.1643 52.3893 36.1643 55.0626C36.1643 57.1849 37.5506 58.9919 39.474 59.6471ZM41.0657 53.3633C42.013 53.3633 42.7838 54.1258 42.7838 55.0628C42.7838 55.9999 42.013 56.7623 41.0657 56.7623C40.1183 56.7623 39.3477 55.9999 39.3477 55.0628C39.3477 54.1258 40.1183 53.3633 41.0657 53.3633Z" fill="#B99879"/>
<path d="M91.0603 31.0861C90.2269 30.0407 88.9769 29.4412 87.6309 29.4412H82.1313V23.7799C82.1313 21.577 80.3193 19.7849 78.0924 19.7849H39.6565C39.3923 19.7849 39.1552 19.6197 39.0661 19.3737L37.4141 14.801C36.8583 13.2619 35.3746 12.228 33.7222 12.228H14.453C12.8008 12.228 11.3171 13.2621 10.7611 14.801L9.10893 19.3739C9.02001 19.6199 8.78274 19.7851 8.51873 19.7851H4.03887C1.81198 19.7847 0 21.577 0 23.7799V74.7771C0 76.98 1.81198 78.7721 4.03887 78.7721H78.0924C80.2391 78.7721 81.9948 77.1057 82.1192 75.0129L91.8778 34.7687C92.1916 33.4737 91.8937 32.1315 91.0603 31.0861ZM78.9479 74.7769C78.9479 75.2435 78.564 75.6231 78.0924 75.6231H4.03887C3.56709 75.6231 3.18338 75.2433 3.18338 74.7769V23.7799C3.18338 23.3132 3.5673 22.9337 4.03887 22.9337H8.51873C10.1244 22.9337 11.5663 21.9288 12.1066 20.4331L13.7588 15.8603C13.8634 15.571 14.1423 15.3766 14.453 15.3766H33.7222C34.0329 15.3766 34.3118 15.571 34.4164 15.8605L36.0684 20.4333C36.6089 21.929 38.0508 22.9337 39.6565 22.9337H78.0924C78.5642 22.9337 78.9479 23.3134 78.9479 23.7799V74.7769ZM88.7822 34.0342L82.1313 61.4626V32.5897H87.6309C88.1305 32.5897 88.4278 32.8691 88.5607 33.0358C88.6933 33.2023 88.8988 33.5535 88.7822 34.0342Z" fill="#B99879"/>
</svg>
