<svg width="92" height="91" viewBox="0 0 92 91" fill="none" xmlns="http://www.w3.org/2000/svg">
<path d="M87.6875 31.2812H78.2C74.8123 31.2849 71.4875 30.3759 68.5825 28.6519C65.6775 26.9278 63.3021 24.4538 61.7111 21.4954L59.9522 18.2334C58.1784 14.9359 55.2683 12.3766 51.75 11.0199V8.53125C51.75 7.02283 51.1442 5.57619 50.0659 4.50958C48.9875 3.44297 47.525 2.84375 46 2.84375C44.475 2.84375 43.0125 3.44297 41.9341 4.50958C40.8558 5.57619 40.25 7.02283 40.25 8.53125V11.0199C36.7317 12.3766 33.8216 14.9359 32.0477 18.2334L30.289 21.4955C28.698 24.4539 26.3225 26.9278 23.4175 28.6519C20.5125 30.3759 17.1877 31.2849 13.8 31.2812H4.3125C3.93125 31.2813 3.56562 31.4311 3.29604 31.6977C3.02646 31.9644 2.875 32.326 2.875 32.7031V38.3906C2.875 38.7677 3.02646 39.1294 3.29604 39.396C3.56562 39.6627 3.93125 39.8125 4.3125 39.8125H13.7601L9.05557 52.6094H7.1875C6.80625 52.6094 6.44062 52.7592 6.17104 53.0258C5.90146 53.2925 5.75 53.6541 5.75 54.0312C5.75 57.0481 6.9616 59.9414 9.11827 62.0746C11.2749 64.2078 14.2 65.4062 17.25 65.4062C20.3 65.4062 23.2251 64.2078 25.3817 62.0746C27.5384 59.9414 28.75 57.0481 28.75 54.0312C28.75 53.6541 28.5985 53.2925 28.329 53.0258C28.0594 52.7592 27.6937 52.6094 27.3125 52.6094H25.4444L20.7399 39.8125H24.2462C28.4247 39.813 32.4612 38.3128 35.6054 35.5908L39.3885 32.3164C39.6633 32.0797 39.9509 31.858 40.25 31.6522V69.3362L37.9241 73.9375H34.5C34.2768 73.9375 34.0567 73.9889 33.8571 74.0876C33.6575 74.1863 33.4839 74.3297 33.35 74.5063L29.4688 79.625H23C22.6188 79.625 22.2531 79.7748 21.9835 80.0415C21.714 80.3081 21.5625 80.6698 21.5625 81.0469V86.7344C21.5625 87.1115 21.714 87.4731 21.9835 87.7398C22.2531 88.0064 22.6188 88.1562 23 88.1562H69C69.3812 88.1562 69.7469 88.0064 70.0165 87.7398C70.286 87.4731 70.4375 87.1115 70.4375 86.7344V81.0469C70.4375 80.6698 70.286 80.3081 70.0165 80.0415C69.7469 79.7748 69.3812 79.625 69 79.625H62.5312L58.65 74.5063C58.5161 74.3297 58.3425 74.1863 58.1429 74.0876C57.9433 73.9889 57.7232 73.9375 57.5 73.9375H54.0759L51.75 69.3362V31.6522C52.0491 31.858 52.3367 32.0797 52.6115 32.3164H52.6114L56.3946 35.5908C59.5388 38.3128 63.5753 39.813 67.7538 39.8125H71.2601L66.5556 52.6094H64.6875C64.3063 52.6094 63.9406 52.7592 63.671 53.0258C63.4015 53.2925 63.25 53.6541 63.25 54.0312C63.25 57.0481 64.4616 59.9414 66.6183 62.0746C68.7749 64.2078 71.7 65.4062 74.75 65.4062C77.8 65.4062 80.7251 64.2078 82.8817 62.0746C85.0384 59.9414 86.25 57.0481 86.25 54.0312C86.25 53.6541 86.0985 53.2925 85.829 53.0258C85.5594 52.7592 85.1937 52.6094 84.8125 52.6094H82.9444L78.2399 39.8125H87.6875C88.0687 39.8125 88.4344 39.6627 88.704 39.396C88.9735 39.1294 89.125 38.7677 89.125 38.3906V32.7031C89.125 32.326 88.9735 31.9644 88.704 31.6977C88.4344 31.4311 88.0687 31.2813 87.6875 31.2812ZM43.125 8.53125C43.125 7.77704 43.4279 7.05372 43.9671 6.52042C44.5062 5.98711 45.2375 5.6875 46 5.6875C46.7625 5.6875 47.4938 5.98711 48.0329 6.52042C48.5721 7.05372 48.875 7.77704 48.875 8.53125V10.214C46.9745 9.86617 45.0255 9.86617 43.125 10.214V8.53125ZM17.25 62.5625C15.2124 62.5599 13.2412 61.845 11.6849 60.5441C10.1285 59.2432 9.08715 57.44 8.74476 55.4531H25.7552C25.4129 57.44 24.3715 59.2432 22.8151 60.5441C21.2588 61.845 19.2876 62.5599 17.25 62.5625ZM22.3851 52.6094H12.1149L16.8194 39.8125H17.6806L22.3851 52.6094ZM67.5625 85.3125H24.4375V82.4688H67.5625V85.3125ZM58.9375 79.625H33.0625L35.2188 76.7812H56.7812L58.9375 79.625ZM49.0268 70.3078L50.8616 73.9375H41.1384L42.9732 70.3078C43.073 70.1104 43.125 69.8926 43.125 69.6719V30.2777C45.0002 29.7199 46.9998 29.7199 48.875 30.2777V69.6719C48.875 69.8926 48.927 70.1104 49.0268 70.3078ZM74.75 62.5625C72.7124 62.5599 70.7412 61.845 69.1849 60.5441C67.6285 59.2432 66.5872 57.44 66.2448 55.4531H83.2552C82.9128 57.44 81.8715 59.2432 80.3151 60.5441C78.7588 61.845 76.7876 62.5599 74.75 62.5625ZM79.8851 52.6094H69.6149L74.3194 39.8125H75.1806L79.8851 52.6094ZM86.25 36.9688H67.7538C64.2717 36.9692 60.908 35.719 58.2878 33.4507L54.5046 30.1763H54.5045C52.1502 28.1387 49.1283 27.0156 46 27.0156C42.8717 27.0156 39.8497 28.1387 37.4954 30.1763L33.7122 33.4507C31.092 35.719 27.7283 36.9692 24.2462 36.9688H5.75V34.125H13.8C17.7089 34.1292 21.5452 33.0804 24.8972 31.0911C28.2491 29.1018 30.99 26.2472 32.8258 22.8337L34.5845 19.5716C35.688 17.5251 37.333 15.8138 39.3437 14.6205C41.3544 13.4272 43.6551 12.7969 46 12.7969C48.3448 12.7969 50.6455 13.4272 52.6562 14.6205C54.6669 15.8138 56.3119 17.5251 57.4154 19.5716L59.1743 22.8337C61.0101 26.2472 63.751 29.1018 67.1029 31.0911C70.4548 33.0804 74.2911 34.1292 78.2 34.125H86.25V36.9688Z" fill="#B4996B"/>
<path d="M46 15.6406C45.1471 15.6406 44.3133 15.8908 43.6041 16.3595C42.8949 16.8282 42.3422 17.4944 42.0158 18.2739C41.6894 19.0533 41.604 19.911 41.7704 20.7384C41.9368 21.5659 42.3475 22.3259 42.9506 22.9225C43.5537 23.5191 44.3221 23.9253 45.1587 24.0899C45.9952 24.2545 46.8623 24.17 47.6503 23.8472C48.4383 23.5243 49.1119 22.9776 49.5857 22.2761C50.0596 21.5746 50.3125 20.7499 50.3125 19.9062C50.3112 18.7753 49.8564 17.6911 49.048 16.8914C48.2395 16.0917 47.1434 15.6419 46 15.6406ZM46 21.3281C45.7157 21.3281 45.4378 21.2447 45.2014 21.0885C44.965 20.9323 44.7807 20.7102 44.6719 20.4504C44.5631 20.1906 44.5347 19.9047 44.5901 19.6289C44.6456 19.353 44.7825 19.0997 44.9835 18.9008C45.1846 18.702 45.4407 18.5666 45.7196 18.5117C45.9984 18.4568 46.2874 18.485 46.5501 18.5926C46.8128 18.7002 47.0373 18.8825 47.1952 19.1163C47.3532 19.3501 47.4375 19.625 47.4375 19.9062C47.4371 20.2832 47.2855 20.6446 47.016 20.9112C46.7465 21.1777 46.3811 21.3277 46 21.3281Z" fill="#B4996B"/>
</svg>
